<svg width="24" height="24" viewBox="0 0 24 24" fill="none" xmlns="http://www.w3.org/2000/svg">
<path d="M22 1H2C1.44772 1 1 1.44772 1 2V22C1 22.5523 1.44772 23 2 23H22C22.5523 23 23 22.5523 23 22V2C23 1.44772 22.5523 1 22 1Z" stroke="white" stroke-width="2" stroke-linecap="round" stroke-linejoin="round"/>
<path d="M11 10V18" stroke="white" stroke-width="2" stroke-linecap="round" stroke-linejoin="round"/>
<path d="M7 10V18" stroke="white" stroke-width="2" stroke-linecap="round" stroke-linejoin="round"/>
<path d="M11 13.5C11 12.5717 11.3687 11.6815 12.0251 11.0251C12.6815 10.3687 13.5717 10 14.5 10C15.4283 10 16.3185 10.3687 16.9749 11.0251C17.6313 11.6815 18 12.5717 18 13.5V18" stroke="white" stroke-width="2" stroke-linecap="round" stroke-linejoin="round"/>
<path d="M7 7.5C7.82843 7.5 8.5 6.82843 8.5 6C8.5 5.17157 7.82843 4.5 7 4.5C6.17157 4.5 5.5 5.17157 5.5 6C5.5 6.82843 6.17157 7.5 7 7.5Z" fill="white"/>
</svg>
