<svg width="108" height="69" viewBox="0 0 108 69" fill="none" xmlns="http://www.w3.org/2000/svg">
<path d="M34.8438 49.8868C48.3413 49.8868 59.2832 38.945 59.2832 25.4475C59.2832 11.95 48.3413 1.00815 34.8438 1.00815C21.3463 1.00815 10.4045 11.95 10.4045 25.4475C10.4045 38.945 21.3463 49.8868 34.8438 49.8868Z" stroke="black" stroke-width="2" stroke-miterlimit="10"/>
<path d="M66.5267 1.9186C69.8881 0.971513 73.4135 0.75576 76.8653 1.28587C80.3172 1.81598 83.6154 3.07965 86.5377 4.99176C89.4601 6.90387 91.9387 9.42002 93.8068 12.3707C95.6748 15.3215 96.8888 18.6382 97.3671 22.0976C97.8453 25.5571 97.5767 29.0788 96.5792 32.4256C95.5818 35.7725 93.8787 38.8667 91.5847 41.5C89.2908 44.1332 86.4591 46.2443 83.2806 47.691C80.102 49.1377 76.6503 49.8865 73.158 49.8869" stroke="black" stroke-width="2" stroke-linecap="round" stroke-linejoin="round"/>
<path d="M1.0027 67.4628C4.81963 62.0335 9.88684 57.6023 15.7765 54.5432C21.6662 51.4842 28.2055 49.8871 34.8422 49.8868C41.4789 49.8866 48.0183 51.4832 53.9082 54.5418C59.7981 57.6004 64.8657 62.0312 68.683 67.4602" stroke="black" stroke-width="2" stroke-linecap="round" stroke-linejoin="round"/>
<path d="M73.158 49.8869C79.7954 49.8821 86.3361 51.4767 92.2265 54.5357C98.1169 57.5947 103.184 62.028 106.997 67.4603" stroke="black" stroke-width="2" stroke-linecap="round" stroke-linejoin="round"/>
</svg>
