<svg width="27" height="23" viewBox="0 0 27 23" fill="none" xmlns="http://www.w3.org/2000/svg">
<path d="M1.3209 20C1.3209 20 6.3209 19 7.3209 16C7.3209 16 -0.679104 13 1.3209 2C1.3209 2 5.3209 7 11.3209 8V6.00036C11.321 4.85156 11.7166 3.73783 12.4413 2.84641C13.1659 1.95498 14.1754 1.34023 15.3 1.10551C16.4245 0.870781 17.5956 1.0304 18.6163 1.55752C19.6371 2.08464 20.4452 2.94712 20.9048 3.99996L25.3209 4L21.3209 8C21.3209 15 16.3209 22 7.3209 22C3.3209 22 1.3209 20 1.3209 20Z" stroke="white" stroke-width="2" stroke-linecap="round" stroke-linejoin="round"/>
</svg>
