<svg width="67" height="51" viewBox="0 0 67 51" fill="none" xmlns="http://www.w3.org/2000/svg">
<path d="M8.69005 47.5772C8.76472 47.892 8.90231 48.1885 9.09454 48.4488C9.28677 48.7091 9.52968 48.9278 9.80863 49.0917C10.0876 49.2557 10.3968 49.3615 10.7178 49.4029C11.0387 49.4442 11.3647 49.4202 11.6761 49.3323C25.9539 45.3901 41.0328 45.3887 55.3114 49.3281C55.6227 49.416 55.9485 49.4399 56.2693 49.3986C56.5901 49.3573 56.8992 49.2515 57.1781 49.0876C57.457 48.9237 57.6998 48.7051 57.8921 48.445C58.0843 48.1849 58.2219 47.8886 58.2967 47.5739L65.9278 15.1446C66.03 14.7104 66.0089 14.2564 65.867 13.8336C65.725 13.4108 65.4678 13.036 65.1244 12.7515C64.7809 12.467 64.3649 12.284 63.923 12.2232C63.4812 12.1623 63.0312 12.2261 62.6236 12.4072L47.4792 19.1381C46.9323 19.3811 46.3143 19.4106 45.7468 19.2208C45.1793 19.031 44.7033 18.6357 44.4127 18.1125L35.5949 2.24044C35.3874 1.86705 35.0839 1.55593 34.7158 1.33932C34.3476 1.12271 33.9283 1.00848 33.5011 1.00848C33.074 1.00848 32.6546 1.12271 32.2865 1.33932C31.9184 1.55593 31.6148 1.86705 31.4074 2.24044L22.5896 18.1125C22.299 18.6357 21.823 19.031 21.2555 19.2208C20.688 19.4106 20.0699 19.3811 19.5231 19.1381L4.37638 12.4062C3.96891 12.2251 3.51896 12.1613 3.07722 12.2221C2.63547 12.2829 2.21945 12.4658 1.87601 12.7502C1.53257 13.0346 1.27534 13.4092 1.13328 13.8319C0.991221 14.2545 0.969975 14.7085 1.07193 15.1426L8.69005 47.5772Z" stroke="black" stroke-width="2" stroke-linecap="round" stroke-linejoin="round"/>
<path d="M23.9206 37.2966C30.2901 36.6265 36.7123 36.6265 43.0818 37.2966" stroke="black" stroke-width="2" stroke-linecap="round" stroke-linejoin="round"/>
</svg>
