<svg width="64" height="62" viewBox="0 0 64 62" fill="none" xmlns="http://www.w3.org/2000/svg">
<path d="M33.3148 50.7012L48.3479 60.2256C50.2695 61.443 52.6553 59.6323 52.0851 57.3892L47.7417 40.3034C47.6194 39.8275 47.6338 39.3268 47.7835 38.8588C47.9331 38.3908 48.2118 37.9745 48.5874 37.6578L62.0681 26.4376C63.8395 24.9633 62.9252 22.0236 60.6495 21.8759L43.0446 20.7334C42.5704 20.6995 42.1156 20.5316 41.7331 20.2493C41.3506 19.9669 41.0562 19.5817 40.8842 19.1385L34.3183 2.60396C34.1398 2.13357 33.8225 1.7286 33.4084 1.44283C32.9943 1.15706 32.5031 1.00401 32 1.00401C31.4969 1.00401 31.0057 1.15706 30.5916 1.44283C30.1775 1.7286 29.8602 2.13357 29.6817 2.60396L23.1158 19.1385C22.9438 19.5817 22.6494 19.9669 22.2669 20.2493C21.8845 20.5316 21.4297 20.6995 20.9555 20.7334L3.35055 21.8759C1.0748 22.0236 0.160557 24.9633 1.93186 26.4376L15.4126 37.6578C15.7882 37.9745 16.0669 38.3908 16.2165 38.8588C16.3662 39.3268 16.3806 39.8275 16.2583 40.3034L12.2303 56.1486C11.5461 58.8403 14.4091 61.0132 16.715 59.5522L30.6852 50.7012C31.0781 50.4511 31.5342 50.3183 32 50.3183C32.4658 50.3183 32.9219 50.4511 33.3148 50.7012V50.7012Z" stroke="black" stroke-width="2" stroke-linecap="round" stroke-linejoin="round"/>
</svg>
