<svg width="38" height="56" viewBox="0 0 38 56" fill="none" xmlns="http://www.w3.org/2000/svg">
<path d="M27.9946 36.9889C32.9622 36.9889 36.9892 32.9619 36.9892 27.9944C36.9892 23.0268 32.9622 18.9998 27.9946 18.9998C23.027 18.9998 19 23.0268 19 27.9944C19 32.9619 23.027 36.9889 27.9946 36.9889Z" stroke="black" stroke-width="2" stroke-linecap="round" stroke-linejoin="round"/>
<path d="M19 18.9998V1.01081H10.0054C7.61989 1.01081 5.33208 1.95845 3.64526 3.64526C1.95845 5.33208 1.01081 7.61989 1.01081 10.0054C1.01081 12.3909 1.95845 14.6787 3.64526 16.3655C5.33208 18.0524 7.61989 19 10.0054 19L19 18.9998Z" stroke="black" stroke-width="2" stroke-linecap="round" stroke-linejoin="round"/>
<path d="M19 36.9887V18.9998H10.0054C7.61989 18.9998 5.33208 19.9474 3.64526 21.6342C1.95845 23.321 1.01081 25.6088 1.01081 27.9944C1.01081 30.3799 1.95845 32.6677 3.64526 34.3545C5.33208 36.0413 7.61989 36.9889 10.0054 36.9889L19 36.9887Z" stroke="black" stroke-width="2" stroke-linecap="round" stroke-linejoin="round"/>
<path d="M19 18.9998V1.01081H27.9946C30.3801 1.01081 32.6679 1.95845 34.3547 3.64526C36.0416 5.33208 36.9892 7.61989 36.9892 10.0054C36.9892 12.3909 36.0416 14.6787 34.3547 16.3655C32.6679 18.0524 30.3801 19 27.9946 19L19 18.9998Z" stroke="black" stroke-width="2" stroke-linecap="round" stroke-linejoin="round"/>
<path d="M19 36.9887V45.9834C19 47.7624 18.4725 49.5014 17.4842 50.9806C16.4959 52.4597 15.0911 53.6126 13.4476 54.2934C11.804 54.9742 9.99551 55.1524 8.25072 54.8053C6.50593 54.4583 4.90324 53.6016 3.64531 52.3437C2.38738 51.0858 1.53072 49.4831 1.18365 47.7383C0.836579 45.9936 1.0147 44.185 1.69547 42.5415C2.37625 40.8979 3.52911 39.4932 5.00826 38.5048C6.48742 37.5165 8.22644 36.9889 10.0054 36.9889L19 36.9887Z" stroke="black" stroke-width="2" stroke-linecap="round" stroke-linejoin="round"/>
</svg>
