<svg width="59" height="59" viewBox="0 0 59 59" fill="none" xmlns="http://www.w3.org/2000/svg">
<path d="M29.5001 29.5V1" stroke="black" stroke-width="2" stroke-linecap="round" stroke-linejoin="round"/>
<path d="M54.1818 15.25L4.81836 43.75" stroke="black" stroke-width="2" stroke-linecap="round" stroke-linejoin="round"/>
<path d="M1.47525 34.7103C0.2413 28.0324 1.42852 21.1334 4.82372 15.2521C8.21891 9.37087 13.5996 4.8927 19.9996 2.62183V24.0153L1.47525 34.7103Z" stroke="black" stroke-width="2" stroke-linecap="round" stroke-linejoin="round"/>
<path d="M29.5001 1C34.4933 1.00092 39.3987 2.31369 43.725 4.80685C48.0513 7.3 51.6466 10.886 54.151 15.2058C56.6553 19.5256 57.9808 24.4276 57.9947 29.4208C58.0086 34.4141 56.7103 39.3233 54.23 43.657C51.7497 47.9906 48.1743 51.5966 43.862 54.1137C39.5496 56.6309 34.6516 57.9709 29.6584 57.9995C24.6652 58.0282 19.7522 56.7445 15.4112 54.277C11.0702 51.8096 7.45368 48.2449 4.92377 43.94" stroke="black" stroke-width="2" stroke-linecap="round" stroke-linejoin="round"/>
</svg>
